<?xml version="1.0" standalone="no"?>
<!DOCTYPE svg PUBLIC "-//W3C//DTD SVG 20010904//EN"
 "http://www.w3.org/TR/2001/REC-SVG-20010904/DTD/svg10.dtd">
<svg version="1.0" xmlns="http://www.w3.org/2000/svg"
 width="512.000000pt" height="512.000000pt" viewBox="0 0 512.000000 512.000000"
 preserveAspectRatio="xMidYMid meet">
<metadata>
Created by potrace 1.14, written by Peter Selinger 2001-2017
</metadata>
<g transform="translate(0.000000,512.000000) scale(0.100000,-0.100000)"
fill="#000000" stroke="none">
<path d="M317 4992 c-25 -27 -25 -362 -1 -386 8 -9 18 -16 22 -17 4 0 15 -2
24 -4 10 -2 26 8 37 21 17 21 18 41 17 197 -1 189 -6 207 -56 207 -15 0 -34
-8 -43 -18z"/>
<path d="M816 4988 c-19 -30 -22 -354 -3 -379 21 -28 57 -30 82 -5 22 23 23
29 23 192 0 190 -6 214 -58 214 -20 0 -34 -8 -44 -22z"/>
<path d="M3207 4989 c-53 -8 -113 -53 -139 -102 -22 -42 -22 -44 -22 -603 l-1
-561 27 -50 26 -50 -444 0 -444 0 -1 31 c-5 239 -198 439 -435 451 -260 13
-476 -186 -486 -447 l-1 -35 -137 0 -137 -1 24 65 c63 174 24 360 -101 485
-99 100 -218 144 -360 136 -181 -12 -330 -123 -397 -297 -29 -73 -35 -208 -13
-283 41 -139 158 -265 286 -307 l33 -11 -2 -1347 c-1 -742 -2 -1353 -2 -1360
-1 -8 -46 -12 -150 -15 -133 -3 -153 -5 -178 -24 -60 -45 -69 -109 -28 -199
74 -162 91 -192 136 -236 68 -67 125 -97 219 -116 14 -3 952 -5 2085 -5 1603
-1 2070 2 2105 12 107 29 211 111 257 202 100 198 113 252 72 309 -34 48 -68
57 -218 58 -74 0 -136 3 -138 5 -3 2 -5 611 -6 1353 l-2 1348 -28 54 c-16 30
-44 68 -63 86 l-33 32 174 1 c148 1 181 4 218 20 51 23 92 69 107 120 11 40
14 1069 4 1135 -9 48 -72 122 -122 138 -28 10 -221 13 -843 13 -443 1 -822 -2
-842 -5z"/>
<path d="M566 4818 c-13 -18 -16 -53 -16 -178 0 -85 4 -160 8 -167 4 -6 20
-17 35 -22 24 -9 31 -8 51 12 22 23 23 30 24 181 0 142 -2 160 -19 177 -26 26
-64 24 -83 -3z"/>
<path d="M1460 4792 c-21 -17 -22 -25 -21 -196 0 -154 2 -181 17 -197 20 -23
53 -24 80 -5 18 13 19 28 19 201 -1 175 -2 187 -20 198 -32 18 -52 18 -75 -1z"/>
<path d="M1960 4790 c-19 -19 -20 -33 -20 -198 0 -161 2 -181 18 -195 23 -21
52 -22 78 -3 18 13 19 28 19 200 0 173 -1 186 -20 200 -27 21 -51 20 -75 -4z"/>
<path d="M1730 4632 c-35 -10 -40 -33 -40 -197 0 -144 2 -164 18 -178 23 -21
52 -22 77 -3 18 13 20 29 21 173 1 116 -2 164 -12 179 -14 23 -40 33 -64 26z"/>
</g>
</svg>
